<svg xmlns="http://www.w3.org/2000/svg" width="30" height="30" viewBox="1232 11 30 30"><path d="M1252.9 28.802a11.121 11.121 0 0 0 1.928-4.473 11.163 11.163 0 0 0-3.684-10.488 11.604 11.604 0 0 0-.986-.766c-5.187-3.6-12.37-2.396-16.041 2.69a11.123 11.123 0 0 0-1.928 4.47c-.785 4.187.893 8.633 4.67 11.255a11.698 11.698 0 0 0 12.502.507l8.485 8.269a2.415 2.415 0 0 0 1.448.716c.66.08 1.35-.107 1.885-.568a2.436 2.436 0 0 0 .071-.064 2.339 2.339 0 0 0 .665-1.088c.195-.7.056-1.472-.423-2.073a2.403 2.403 0 0 0-.154-.175 2.291 2.291 0 0 0-.02-.022 1.84 1.84 0 0 0-.068-.064l-8.35-8.126Zm-9.4.77c-4.098 0-7.42-3.254-7.423-7.272a3.667 3.667 0 0 1 0-.002 7.35 7.35 0 0 1 7.42-7.276h.002a7.35 7.35 0 0 1 7.42 7.261 7.36 7.36 0 0 1 0 .013 7.352 7.352 0 0 1-7.412 7.277h-.006Z" fill="rgba(52, 52, 52, 1)" fill-rule="evenodd" data-name="Search"/></svg>